<svg xmlns="http://www.w3.org/2000/svg" width="512" height="512" viewBox="0 0 512 512">
  <defs>
    <linearGradient id="bg" x1="0" x2="1" y1="0" y2="1">
      <stop offset="0%" stop-color="#05070a"/>
      <stop offset="100%" stop-color="#1b2430"/>
    </linearGradient>
    <linearGradient id="accent" x1="0" x2="1" y1="0" y2="1">
      <stop offset="0%" stop-color="#f3f7fb"/>
      <stop offset="100%" stop-color="#9fd3ff"/>
    </linearGradient>
    <filter id="softGlow" x="-40%" y="-40%" width="180%" height="180%">
      <feGaussianBlur stdDeviation="16" result="glow"/>
      <feMerge>
        <feMergeNode in="glow"/>
        <feMergeNode in="SourceGraphic"/>
      </feMerge>
    </filter>
  </defs>

  <rect width="512" height="512" rx="120" fill="url(#bg)"/>
  <rect x="28" y="28" width="456" height="456" rx="100" fill="none" stroke="#ffffff" stroke-opacity="0.08" stroke-width="2"/>

  <path
    d="M116 118 L214 382 L256 270 L298 382 L396 118"
    fill="none"
    stroke="url(#accent)"
    stroke-linecap="round"
    stroke-linejoin="round"
    stroke-width="42"
    filter="url(#softGlow)"
  />

  <path
    d="M164 188 H226"
    fill="none"
    stroke="#ffffff"
    stroke-linecap="round"
    stroke-width="18"
    opacity="0.92"
  />

  <path
    d="M339 168
       c26 0 47 21 47 47
       c0 39-47 42-47 79
       c0-37-47-40-47-79
       c0-26 21-47 47-47z"
    fill="#ffffff"
    opacity="0.94"
  />

  <circle cx="339" cy="305" r="11" fill="#9fd3ff"/>
</svg>
