<svg xmlns="http://www.w3.org/2000/svg" width="96" height="96" viewBox="0 0 96 96">
  <defs>
    <linearGradient id="bg" x1="0" x2="1" y1="0" y2="1">
      <stop offset="0%" stop-color="#05070a"/>
      <stop offset="100%" stop-color="#1b2430"/>
    </linearGradient>
    <linearGradient id="accent" x1="0" x2="1" y1="0" y2="1">
      <stop offset="0%" stop-color="#f3f7fb"/>
      <stop offset="100%" stop-color="#9fd3ff"/>
    </linearGradient>
  </defs>

  <rect width="96" height="96" rx="24" fill="url(#bg)"/>
  <rect x="5" y="5" width="86" height="86" rx="20" fill="none" stroke="#ffffff" stroke-opacity="0.08" stroke-width="1"/>

  <path
    d="M20 22 L38 74 L48 51 L58 74 L76 22"
    fill="none"
    stroke="url(#accent)"
    stroke-linecap="round"
    stroke-linejoin="round"
    stroke-width="8"
  />

  <path d="M28 36 H40" fill="none" stroke="#ffffff" stroke-linecap="round" stroke-width="3.5"/>

  <path
    d="M64 31
       c5 0 9 4 9 9
       c0 7-9 8-9 15
       c0-7-9-8-9-15
       c0-5 4-9 9-9z"
    fill="#ffffff"
    opacity="0.94"
  />

  <circle cx="64" cy="58" r="2.6" fill="#9fd3ff"/>
</svg>
